<?xml version="1.0" encoding="UTF-8" standalone="no"?>
<!-- Created with Inkscape (http://www.inkscape.org/) -->

<svg
   width="48"
   height="48"
   viewBox="0 0 12.7 12.7"
   version="1.1"
   id="svg5"
   xml:space="preserve"
   inkscape:version="1.2.2 (732a01da63, 2022-12-09)"
   sodipodi:docname="Logo.svg"
   inkscape:export-filename="favicon.svg"
   inkscape:export-xdpi="96"
   inkscape:export-ydpi="96"
   xmlns:inkscape="http://www.inkscape.org/namespaces/inkscape"
   xmlns:sodipodi="http://sodipodi.sourceforge.net/DTD/sodipodi-0.dtd"
   xmlns="http://www.w3.org/2000/svg"
   xmlns:svg="http://www.w3.org/2000/svg"><sodipodi:namedview
     id="namedview7"
     pagecolor="#ffffff"
     bordercolor="#000000"
     borderopacity="0.25"
     inkscape:showpageshadow="2"
     inkscape:pageopacity="0.0"
     inkscape:pagecheckerboard="0"
     inkscape:deskcolor="#d1d1d1"
     inkscape:document-units="mm"
     showgrid="false"
     inkscape:zoom="10.099008"
     inkscape:cx="56.045106"
     inkscape:cy="35.151966"
     inkscape:window-width="2560"
     inkscape:window-height="1369"
     inkscape:window-x="1912"
     inkscape:window-y="-8"
     inkscape:window-maximized="1"
     inkscape:current-layer="layer1" /><defs
     id="defs2" /><g
     inkscape:label="Lager 1"
     inkscape:groupmode="layer"
     id="layer1"><path
       style="fill:#000000;stroke-width:0.0625155"
       d="M 0.26447874,12.405584 C 0.1734821,12.295941 0.17519182,12.287244 0.58327734,10.784013 0.71395593,10.302642 0.89537292,9.6274736 0.98642627,9.2836374 1.4281417,7.6156309 3.2028128,0.9969847 3.3038329,0.64085679 l 0.0931,-0.32820676 H 4.169943 c 0.6472143,0 0.7791858,0.016093 0.8109559,0.0988862 0.050791,0.13235498 0.051778,0.12841431 -0.060291,0.24048401 -0.07443,0.0744294 -0.2316271,0.0982388 -0.6485998,0.0982388 -0.5495446,0 -0.5504167,2.599e-4 -0.5881937,0.17191785 C 3.6630045,1.016732 3.5611842,1.4035472 3.4575444,1.7817665 3.3539047,2.1599858 3.1530141,2.9054845 3.0111207,3.4384297 2.8692274,3.9713752 2.6888597,4.6465436 2.6103036,4.938804 2.5317478,5.2310647 2.0836469,6.9049196 1.6145241,8.6584825 1.1454012,10.412045 0.74677916,11.896735 0.72869717,11.957792 c -0.0306648,0.103547 0.0336719,0.109854 0.95646853,0.09378 l 0.989345,-0.01725 0.3223326,-1.187796 C 3.1741261,10.193233 3.4554463,9.1523487 3.6219992,8.5334439 L 3.9248224,7.4081631 h 1.4066015 1.4066014 l -0.0051,0.1875468 C 6.7301099,7.6988608 6.6129933,8.21227 6.4726669,8.7366201 l -0.2551392,0.9533612 1.5730822,9.451e-4 c 0.8651938,4.726e-4 1.6092614,0.023914 1.6534811,0.05197 0.04422,0.028058 0.1927331,0.4707066 0.3300303,0.9836656 0.1372996,0.512957 0.2791267,1.024079 0.3151727,1.135825 l 0.06554,0.203177 h 0.964143 c 0.530279,0 0.964142,-0.02223 0.964142,-0.04939 0,-0.03633 -2.1249596,-8.003713 -2.9338457,-11.0002402 L 9.0775507,0.75024022 H 7.622275 6.166997 L 5.6030483,2.8601417 5.039099,4.970043 6.006757,4.987303 c 0.5322123,0.00949 0.9765027,0.00842 0.9873101,-0.00239 0.010798,-0.01081 0.1136362,-0.3679712 0.2285011,-0.7936933 0.219402,-0.8131512 0.3336525,-0.9929225 0.515479,-0.8110953 0.1007401,0.1007382 1.1567768,3.9393283 1.1567768,4.2047639 0,0.2041553 -0.089356,0.2296154 -0.8058664,0.2296154 -0.6516138,0 -0.8511446,-0.070314 -0.8100297,-0.2854525 C 7.2991062,7.4234927 7.3653826,7.4057996 7.8012614,7.3896154 8.075837,7.37942 8.3233799,7.3481888 8.3513577,7.3202112 8.3793332,7.2922336 8.3020107,6.9067262 8.1795282,6.4635289 8.0570433,6.0203308 7.8977319,5.4326585 7.8255013,5.1575898 7.6364187,4.4375297 7.6357926,4.4367058 7.5406263,4.7824962 7.4933137,4.9544141 7.4189117,5.1654043 7.3752921,5.2513632 L 7.2959826,5.4076521 5.9785381,5.4244988 C 4.460065,5.4439163 4.4513116,5.4411778 4.5742452,4.9852485 4.6135833,4.8393512 4.8852409,3.8197561 5.1779273,2.7194815 5.4706113,1.6192069 5.7395959,0.62755332 5.7756686,0.51580685 L 5.8412551,0.31263113 H 7.614414 c 0.9893161,0 1.7885974,0.0249858 1.8080881,0.0565218 0.019209,0.0310871 0.7495449,2.72470267 1.6229609,5.98581257 1.156257,4.3171715 1.572099,5.9590515 1.529446,6.0387505 -0.053,0.09903 -0.186023,0.109457 -1.396775,0.109457 -0.859528,0 -1.3525794,-0.02327 -1.3784047,-0.06506 C 9.7776135,12.402338 9.6268484,11.874861 9.4646874,11.26595 L 9.1698533,10.158838 6.8966326,10.142416 C 4.7021385,10.126562 4.456217,10.10585 4.456217,9.9368413 c 0,-0.027718 0.044207,-0.094604 0.09824,-0.1486339 0.074348,-0.074348 0.231353,-0.09824 0.6456028,-0.09824 H 5.7474262 L 5.9962331,8.7678631 6.2450424,7.8457583 5.2793266,7.8284981 C 4.7481823,7.8190081 4.302659,7.8221881 4.2892728,7.8355781 4.2758878,7.8489631 3.994825,8.8694832 3.6646911,10.1034 c -0.3301339,1.23392 -0.6281243,2.278649 -0.6622007,2.321629 -0.045998,0.05802 -0.3961818,0.07815 -1.3594753,0.07815 -1.09973136,0 -1.30986623,-0.01489 -1.37852454,-0.09761 z M 5.159507,12.461791 C 5.0394416,12.413341 5.064421,12.231087 5.3209094,11.284138 l 0.2370592,-0.875219 0.2389723,-0.01989 c 0.2058891,-0.01715 0.2344624,-0.0042 0.2063948,0.09377 -0.01791,0.06252 -0.1096431,0.394998 -0.2038359,0.738834 -0.094192,0.343834 -0.1852518,0.675119 -0.2023537,0.736183 -0.028984,0.103505 0.035962,0.10986 0.9582139,0.09378 l 0.9893067,-0.01725 0.088021,-0.312579 c 0.1616837,-0.574175 0.2298456,-0.736074 0.3388531,-0.804833 0.082972,-0.05234 0.1315533,-0.04493 0.2082165,0.03173 0.091646,0.09165 0.085684,0.154175 -0.071423,0.749129 -0.094278,0.357023 -0.1984558,0.684298 -0.2315066,0.727277 -0.044862,0.05835 -0.386865,0.0769 -1.3496352,0.07321 -0.7092494,-0.0027 -1.3247069,-0.01914 -1.3676861,-0.03647 z"
       id="path183" /></g>
       <style>
    @media (prefers-color-scheme: dark) {
      :root {
        filter: invert(100%);
      }
    }
  </style>
       </svg>
