<?xml version="1.0" encoding="UTF-8"?>
<!-- Created with Inkscape (http://www.inkscape.org/) -->
<svg width="46.722" height="46.075" version="1.1" viewBox="0 0 12.362 12.191" xml:space="preserve" xmlns="http://www.w3.org/2000/svg"><g transform="translate(-.21588 -.31263)"><path d="m0.26448 12.406c-0.090997-0.10964-0.089287-0.11834 0.3188-1.6216 0.13068-0.48137 0.3121-1.1565 0.40315-1.5004 0.44172-1.668 2.2164-8.2867 2.3174-8.6428l0.0931-0.32821h0.77301c0.64721 0 0.77919 0.016093 0.81096 0.098886 0.050791 0.13235 0.051778 0.12841-0.060291 0.24048-0.07443 0.074429-0.23163 0.098239-0.6486 0.098239-0.54954 0-0.55042 2.599e-4 -0.58819 0.17192-0.02081 0.094555-0.12263 0.48137-0.22627 0.85959-0.10364 0.37822-0.30453 1.1237-0.44642 1.6567-0.14189 0.53295-0.32226 1.2081-0.40082 1.5004-0.078556 0.29226-0.52666 1.9661-0.99578 3.7197-0.46912 1.7536-0.86774 3.2383-0.88583 3.2993-0.030665 0.10355 0.033672 0.10985 0.95647 0.09378l0.98934-0.01725 0.32233-1.1878c0.17728-0.65329 0.4586-1.6942 0.62516-2.3131l0.30282-1.1253h2.8132l-0.0051 0.18755c-0.0028154 0.10315-0.11993 0.61656-0.26026 1.1409l-0.25514 0.95336 1.5731 9.451e-4c0.86519 4.726e-4 1.6093 0.023914 1.6535 0.05197 0.04422 0.028058 0.19273 0.47071 0.33003 0.98367 0.1373 0.51296 0.27913 1.0241 0.31517 1.1358l0.06554 0.20318h0.96414c0.53028 0 0.96414-0.02223 0.96414-0.04939 0-0.03633-2.125-8.0037-2.9338-11l-0.071723-0.26569h-2.9106l-1.1279 4.2198 0.96766 0.01726c0.53221 0.00949 0.9765 0.00842 0.98731-0.00239 0.010798-0.01081 0.11364-0.36797 0.2285-0.79369 0.2194-0.81315 0.33365-0.99292 0.51548-0.8111 0.10074 0.10074 1.1568 3.9393 1.1568 4.2048 0 0.20416-0.089356 0.22962-0.80587 0.22962-0.65161 0-0.85114-0.070314-0.81003-0.28545 0.020178-0.10556 0.086455-0.12325 0.52233-0.13944 0.27458-0.010195 0.52212-0.041427 0.5501-0.069404 0.027976-0.027978-0.049347-0.41348-0.17183-0.85668-0.12248-0.4432-0.2818-1.0309-0.35403-1.3059-0.18908-0.72006-0.18971-0.72088-0.28488-0.37509-0.047313 0.17192-0.12171 0.38291-0.16533 0.46887l-0.07931 0.15629-1.3174 0.016847c-1.5185 0.019418-1.5272 0.016679-1.4043-0.43925 0.039338-0.1459 0.311-1.1655 0.60368-2.2658 0.29268-1.1003 0.56167-2.0919 0.59774-2.2037l0.065586-0.20318h1.7732c0.98932 0 1.7886 0.024986 1.8081 0.056522 0.019209 0.031087 0.74954 2.7247 1.623 5.9858 1.1563 4.3172 1.5721 5.9591 1.5294 6.0388-0.053 0.09903-0.18602 0.10946-1.3968 0.10946-0.85953 0-1.3526-0.02327-1.3784-0.06506-0.022116-0.035775-0.17288-0.56325-0.33504-1.1722l-0.29483-1.1071-2.2732-0.016422c-2.1945-0.015854-2.4404-0.036566-2.4404-0.20557 0-0.027718 0.044207-0.094604 0.09824-0.14863 0.074348-0.074348 0.23135-0.09824 0.6456-0.09824h0.54737l0.24881-0.9221 0.24881-0.9221-0.96572-0.01726c-0.53114-0.00949-0.97667-0.00631-0.99005 0.00708-0.013385 0.013385-0.29445 1.0339-0.62458 2.2678-0.33013 1.2339-0.62812 2.2786-0.6622 2.3216-0.045998 0.05802-0.39618 0.07815-1.3595 0.07815-1.0997 0-1.3099-0.01489-1.3785-0.09761zm4.895 0.056207c-0.12007-0.04845-0.095086-0.2307 0.1614-1.1777l0.23706-0.87522 0.23897-0.01989c0.20589-0.01715 0.23446-0.0042 0.20639 0.09377-0.01791 0.06252-0.10964 0.395-0.20384 0.73883-0.094192 0.34383-0.18525 0.67512-0.20235 0.73618-0.028984 0.1035 0.035962 0.10986 0.95821 0.09378l0.98931-0.01725 0.088021-0.31258c0.16168-0.57418 0.22985-0.73607 0.33885-0.80483 0.082972-0.05234 0.13155-0.04493 0.20822 0.03173 0.091646 0.09165 0.085684 0.15418-0.071423 0.74913-0.094278 0.35702-0.19846 0.6843-0.23151 0.72728-0.044862 0.05835-0.38686 0.0769-1.3496 0.07321-0.70925-0.0027-1.3247-0.01914-1.3677-0.03647z" stroke-width=".062516"/></g>
       <style>
  </style>
       </svg>
